<?xml version="1.0" encoding="UTF-8"?>
<!DOCTYPE svg PUBLIC "-//W3C//DTD SVG 1.1//EN" "http://www.w3.org/Graphics/SVG/1.1/DTD/svg11.dtd">
<!-- Creator: CorelDRAW X8 -->
<svg xmlns="http://www.w3.org/2000/svg" xml:space="preserve" width="500px" height="500px" version="1.1" style="shape-rendering:geometricPrecision; text-rendering:geometricPrecision; image-rendering:optimizeQuality; fill-rule:evenodd; clip-rule:evenodd"
viewBox="0 0 9722 9722"
 xmlns:xlink="http://www.w3.org/1999/xlink">
 <defs>
  <style type="text/css">
   <![CDATA[
    .fil0 {fill:none}
    .fil3 {fill:#535150}
    .fil4 {fill:#EDBE00}
    .fil1 {fill:white}
    .fil2 {fill:#006383;fill-rule:nonzero}
   ]]>
  </style>
 </defs>
 <g id="Layer_x0020_1">
  <metadata id="CorelCorpID_0Corel-Layer"/>
  <rect class="fil0" width="9722" height="9722"/>
  <g id="_2205992979344">
   <rect class="fil1" x="2574" y="2107" width="4573" height="5708" rx="413" ry="413"/>
   <path class="fil2" d="M2987 1918l3748 0c166,0 316,68 425,177 109,109 177,259 177,425l0 4883c0,165 -68,316 -177,425 -109,109 -259,176 -425,176l-3748 0c-166,0 -316,-67 -425,-176 -109,-109 -177,-260 -177,-425l0 -4883c0,-166 68,-316 177,-425 109,-109 259,-177 425,-177zm3748 378l-3748 0c-61,0 -117,26 -158,66 -40,41 -66,96 -66,158l0 4883c0,61 26,117 66,157 41,41 97,66 158,66l3748 0c61,0 117,-25 158,-66 40,-40 65,-96 65,-157l0 -4883c0,-62 -25,-117 -65,-158 -41,-40 -97,-66 -158,-66z"/>
   <path class="fil3" d="M3369 3639l3032 0c89,0 162,73 162,162l0 0c0,89 -73,162 -162,162l-3032 0c-89,0 -162,-73 -162,-162l0 0c0,-90 73,-162 162,-162z"/>
   <g>
    <path class="fil3" d="M3369 2824l3032 0c89,0 162,73 162,162l0 0c0,89 -73,162 -162,162l-3032 0c-89,0 -162,-73 -162,-162l0 0c0,-89 73,-162 162,-162z"/>
    <path class="fil3" d="M3369 4453l3032 0c89,0 162,73 162,162l0 0c0,89 -73,162 -162,162l-3032 0c-89,0 -162,-73 -162,-162l0 0c0,-89 73,-162 162,-162z"/>
   </g>
   <g>
    <circle class="fil4" cx="4861" cy="6301" r="776"/>
    <path class="fil4" d="M5573 7315l0 1407 -686 -562 -686 562 0 -1407 75 0 130 225c46,80 150,108 229,62l226 -131 226 131c79,46 183,18 229,-62l130 -225 127 0z"/>
    <path class="fil4" d="M4090 5377l238 0 118 -205c42,-73 136,-98 209,-56l206 118 206 -118c73,-42 167,-17 209,56l118 205 238 0c84,0 153,69 153,153l0 238 206 119c73,42 98,136 56,209l-119 205 119 206c42,73 17,167 -56,209l-206 119 0 237c0,84 -69,153 -153,153l-238 0 -118 206c-42,73 -136,98 -209,56l-206 -119 -206 119c-73,42 -167,17 -209,-56l-118 -206 -238 0c-84,0 -153,-69 -153,-153l0 -237 -206 -119c-73,-42 -98,-136 -56,-209l119 -206 -119 -205c-42,-73 -17,-167 56,-209l206 -119 0 -238c0,-84 69,-153 153,-153zm771 36c491,0 889,398 889,888 0,491 -398,889 -889,889 -491,0 -889,-398 -889,-889 0,-490 398,-888 889,-888z"/>
   </g>
  </g>
 </g>
</svg>
