<?xml version="1.0" encoding="UTF-8"?>
<!DOCTYPE svg PUBLIC "-//W3C//DTD SVG 1.1//EN" "http://www.w3.org/Graphics/SVG/1.1/DTD/svg11.dtd">
<!-- Creator: CorelDRAW X8 -->
<svg xmlns="http://www.w3.org/2000/svg" xml:space="preserve" width="500px" height="500px" version="1.1" style="shape-rendering:geometricPrecision; text-rendering:geometricPrecision; image-rendering:optimizeQuality; fill-rule:evenodd; clip-rule:evenodd"
viewBox="0 0 160 160"
 xmlns:xlink="http://www.w3.org/1999/xlink">
 <defs>
  <style type="text/css">
   <![CDATA[
    .fil0 {fill:none}
    .fil2 {fill:#535150}
    .fil3 {fill:red}
    .fil1 {fill:white}
    .fil5 {fill:#006383;fill-rule:nonzero}
    .fil4 {fill:white;fill-rule:nonzero}
   ]]>
  </style>
 </defs>
 <g id="Layer_x0020_1">
  <metadata id="CorelCorpID_0Corel-Layer"/>
  <rect class="fil0" width="160" height="160"/>
  <g id="_2205969734480">
   <polygon class="fil1" points="39,49 85,34 105,46 85,90 60,88 34,70 "/>
   <path class="fil2" d="M28 85l4 0 0 -13 -4 0c-4,0 -6,3 -6,6l0 0c0,4 2,7 6,7z"/>
   <path class="fil3" d="M22 130l0 -51c0,-3 2,-6 6,-6l0 11 6 0 104 0 -14 26 14 26 -104 0 -6 0c-4,0 -6,-3 -6,-6z"/>
   <path class="fil2" d="M28 84l24 0 -18 -12 -6 0c-4,0 -6,3 -6,6l0 0c0,3 2,6 6,6z"/>
   <path class="fil4" d="M40 121l0 -22 6 0 9 11c0,0 0,1 0,2 1,0 1,1 2,2 0,-1 -1,-2 -1,-2 0,-1 0,-2 0,-2l0 -11 6 0 0 22 -6 0 -8 -11c0,-1 -1,-1 -1,-2 0,-1 -1,-1 -1,-2 0,1 0,1 0,2 0,1 0,1 0,2l0 11 -6 0z"/>
   <polygon id="1" class="fil4" points="67,121 67,99 81,99 81,104 73,104 73,107 80,107 80,112 73,112 73,116 81,116 81,121 "/>
   <path id="2" class="fil4" d="M100 99l3 10c0,1 0,1 0,2 1,0 1,1 1,2 0,-1 0,-2 0,-2 0,-1 0,-1 1,-2l2 -10 6 0 -6 22 -6 0 -2 -9c-1,-1 -1,-1 -1,-2 0,-1 0,-1 0,-1 0,0 0,0 0,0 -1,1 -1,2 -1,3l-3 9 -5 0 -7 -22 6 0 3 10c0,1 0,2 0,2 0,1 1,1 1,2 0,-1 0,-1 0,-2 0,0 0,-1 0,-2l3 -10 5 0z"/>
   <g>
    <polygon class="fil5" points="68,39 44,46 36,66 64,84 51,84 28,69 38,41 40,40 93,24 118,41 100,84 93,84 110,43 92,31 "/>
    <polygon class="fil5" points="31,64 113,39 115,45 33,71 "/>
    <polygon class="fil5" points="67,84 48,62 54,39 61,41 56,61 76,84 "/>
    <polygon class="fil5" points="86,84 89,50 74,36 79,31 96,47 93,84 "/>
   </g>
  </g>
 </g>
</svg>
