<?xml version="1.0" encoding="UTF-8"?>
<!DOCTYPE svg PUBLIC "-//W3C//DTD SVG 1.1//EN" "http://www.w3.org/Graphics/SVG/1.1/DTD/svg11.dtd">
<!-- Creator: CorelDRAW X8 -->
<svg xmlns="http://www.w3.org/2000/svg" xml:space="preserve" width="500px" height="500px" version="1.1" style="shape-rendering:geometricPrecision; text-rendering:geometricPrecision; image-rendering:optimizeQuality; fill-rule:evenodd; clip-rule:evenodd"
viewBox="0 0 470 470"
 xmlns:xlink="http://www.w3.org/1999/xlink">
 <defs>
  <style type="text/css">
   <![CDATA[
    .fil0 {fill:none}
    .fil1 {fill:#006383}
    .fil2 {fill:#EDBE00}
    .fil3 {fill:red}
   ]]>
  </style>
 </defs>
 <g id="Layer_x0020_1">
  <metadata id="CorelCorpID_0Corel-Layer"/>
  <rect class="fil0" width="470" height="470"/>
  <g id="_2205992964560">
   <path class="fil1" d="M136 88l-36 13 -7 36 37 19c6,-4 12,-8 19,-11l-31 -15 6 -35 8 29 20 20c10,-4 21,-8 33,-9l16 -38 -29 -22 -36 13z"/>
   <g>
    <path class="fil2" d="M223 134c34,6 62,24 82,50 -5,0 -9,0 -12,-1 -18,-5 -15,13 -13,22 -14,-20 -36,-34 -63,-39 -53,-9 -103,27 -112,80 -9,53 27,104 80,112 17,3 34,2 49,-4l4 6c0,0 -16,11 1,18 3,2 6,3 8,6 -21,8 -44,10 -67,6 -71,-11 -119,-78 -107,-149 12,-71 79,-119 150,-107zm82 50c1,2 3,4 4,6 -1,-2 -3,-4 -4,-6zm4 6c1,1 1,2 2,3 -1,-1 -1,-2 -2,-3zm2 3c1,1 1,2 2,3 -1,-1 -1,-2 -2,-3zm2 3c0,1 1,2 1,2 0,0 -1,-1 -1,-2zm2 3c0,1 0,1 1,2 -1,-1 -1,-1 -1,-2zm1 3c0,0 1,1 1,2 0,-1 -1,-2 -1,-2zm2 3c0,0 0,1 1,2 -1,-1 -1,-2 -1,-2zm1 3c0,0 1,1 1,1 0,0 -1,-1 -1,-1zm1 2c1,1 1,2 1,2 0,0 0,-1 -1,-2zm2 3c0,1 0,2 0,2 0,0 0,-1 0,-2zm1 3c0,1 0,1 0,2 0,-1 0,-1 0,-2zm1 3c0,1 0,1 0,2 0,-1 0,-1 0,-2zm-20 123c0,0 0,0 -1,1 1,-1 1,-1 1,-1zm-2 2c0,1 0,1 -1,1 1,0 1,0 1,-1zm-2 2c0,1 -1,1 -1,2 0,-1 1,-1 1,-2zm-2 3c0,0 -1,1 -1,1 0,0 1,-1 1,-1zm-2 2c0,1 -1,1 -1,1 0,0 1,0 1,-1zm-2 3c-1,0 -1,0 -1,0 0,0 0,0 1,0zm-2 1c-1,1 -1,1 -2,2 1,-1 1,-1 2,-2zm-3 3c0,0 0,0 -1,1 1,-1 1,-1 1,-1zm-2 2c0,0 -1,1 -2,1 1,0 2,-1 2,-1zm-2 2c-1,0 -1,1 -2,1 1,0 1,-1 2,-1zm-2 1c-1,1 -2,2 -3,2 1,0 2,-1 3,-2zm-3 3c-1,0 -1,0 -2,1 1,-1 1,-1 2,-1zm-2 1c-1,1 -2,1 -3,2 1,-1 2,-1 3,-2zm-3 2c-1,1 -1,1 -2,1 1,0 1,0 2,-1zm-2 2c-1,0 -2,1 -3,2 1,-1 2,-2 3,-2zm-3 2c-1,0 -1,0 -2,1 1,-1 1,-1 2,-1zm-2 1c-1,1 -3,1 -4,2 1,-1 3,-1 4,-2zm-4 2c0,0 -1,1 -1,1 0,0 1,-1 1,-1zm-2 1c-1,1 -2,1 -3,2 1,-1 2,-1 3,-2zm-3 2c-1,0 -1,0 -2,1 1,-1 1,-1 2,-1zm-2 1c-1,0 -3,1 -4,1 1,0 3,-1 4,-1zm-4 1c-1,1 -1,1 -2,1 1,0 1,0 2,-1zm-2 1c-1,1 -3,1 -4,2 1,-1 3,-1 4,-2zm30 -176c0,1 0,1 1,1 -1,0 -1,0 -1,-1zm1 2c0,0 1,1 1,1 0,0 -1,-1 -1,-1zm1 2c1,1 1,1 1,1 0,0 0,0 -1,-1zm2 2c0,0 0,1 0,1 0,0 0,-1 0,-1zm1 2c0,0 0,1 0,1 0,0 0,-1 0,-1zm1 2c0,1 0,1 1,1 -1,0 -1,0 -1,-1zm1 2c0,1 0,1 1,1 -1,0 -1,0 -1,-1zm1 2c0,1 1,1 1,2 0,-1 -1,-1 -1,-2zm1 2c0,1 1,1 1,2 0,-1 -1,-1 -1,-2zm1 3c0,0 0,1 1,1 -1,0 -1,-1 -1,-1zm1 2c0,0 0,1 0,1 0,0 0,-1 0,-1zm1 2c0,0 0,1 0,1 0,0 0,-1 0,-1zm1 2c0,1 0,1 0,2 0,-1 0,-1 0,-2zm0 2c0,1 1,1 1,2 0,-1 -1,-1 -1,-2zm1 3c0,0 0,1 0,1 0,0 0,-1 0,-1zm1 2c0,0 0,1 0,2 0,-1 0,-2 0,-2zm0 2c0,1 0,1 1,2 -1,-1 -1,-1 -1,-2zm1 2c0,1 0,2 0,2 0,0 0,-1 0,-2zm0 3c0,0 0,1 0,2 0,-1 0,-2 0,-2zm0 2c1,1 1,1 1,2 0,-1 0,-1 -1,-2zm1 2c0,1 0,2 0,2 0,0 0,-1 0,-2zm0 3c0,0 0,1 0,2 0,-1 0,-2 0,-2zm0 2c0,1 0,1 0,2 0,-1 0,-1 0,-2zm0 3c1,0 1,1 1,2 0,-1 0,-2 -1,-2zm1 2c0,1 0,1 0,2 0,-1 0,-1 0,-2zm0 2c0,1 0,2 0,3 0,-1 0,-2 0,-3zm0 3c0,0 0,1 0,2 0,-1 0,-2 0,-2zm0 2c0,1 0,2 -1,2 1,0 1,-1 1,-2zm-1 3c0,0 0,1 0,2 0,-1 0,-2 0,-2zm0 2c0,1 0,2 0,2 0,0 0,-1 0,-2zm0 3c0,0 0,1 0,2 0,-1 0,-2 0,-2zm0 2c0,1 -1,2 -1,2 0,0 1,-1 1,-2zm-1 2c0,1 0,2 0,3 0,-1 0,-2 0,-3zm0 3c0,1 0,1 -1,2 1,-1 1,-1 1,-2zm-1 2c0,1 0,2 0,3 0,-1 0,-2 0,-3zm0 3c0,1 -1,1 -1,2 0,-1 1,-1 1,-2zm-1 2c0,1 0,2 0,2 0,0 0,-1 0,-2zm-1 3c0,0 0,1 0,2 0,-1 0,-2 0,-2zm0 2c-1,1 -1,1 -1,2 0,-1 0,-1 1,-2zm-1 3c0,0 -1,1 -1,1 0,0 1,-1 1,-1zm-1 2c0,0 0,1 -1,2 1,-1 1,-2 1,-2zm-1 2c0,1 0,1 -1,2 1,-1 1,-1 1,-2zm-1 2c0,1 0,1 -1,2 1,-1 1,-1 1,-2zm-1 3c0,0 0,0 -1,1 1,-1 1,-1 1,-1zm-1 2c0,0 -1,1 -1,1 0,0 1,-1 1,-1zm-1 2c0,0 -1,1 -1,1 0,0 1,-1 1,-1zm-1 2c-1,0 -1,1 -1,1 0,0 0,-1 1,-1zm-1 2c-1,0 -1,1 -1,1 0,0 0,-1 1,-1zm-2 2c0,0 0,1 -1,1 1,0 1,-1 1,-1zm-1 2c0,0 -1,1 -1,1 0,0 1,-1 1,-1zm-1 2c-1,0 -1,1 -1,1 0,0 0,-1 1,-1zm-2 2c0,0 0,0 -1,1l1 -1zm-3 3c0,1 0,1 -1,2 1,-1 1,-1 1,-2z"/>
   </g>
   <path class="fil2" d="M332 196c20,28 29,64 23,101 -9,47 -43,83 -85,98 -2,-2 -5,-4 -8,-6 -17,-8 -1,-18 -1,-18l-4 -6c33,-11 59,-38 66,-74 5,-27 -2,-53 -16,-74 -2,-9 -4,-27 13,-22 4,1 8,1 12,1z"/>
   <polygon class="fil3" points="332,113 305,112 325,123 303,132 322,143 305,149 311,174 317,156 336,144 323,133 337,123 "/>
   <polygon class="fil3" points="385,113 398,141 376,128 376,158 353,146 354,169 321,182 340,161 345,132 365,138 369,116 "/>
  </g>
 </g>
</svg>
