<?xml version="1.0" encoding="UTF-8"?>
<!DOCTYPE svg PUBLIC "-//W3C//DTD SVG 1.1//EN" "http://www.w3.org/Graphics/SVG/1.1/DTD/svg11.dtd">
<!-- Creator: CorelDRAW X8 -->
<svg xmlns="http://www.w3.org/2000/svg" xml:space="preserve" width="500px" height="500px" version="1.1" style="shape-rendering:geometricPrecision; text-rendering:geometricPrecision; image-rendering:optimizeQuality; fill-rule:evenodd; clip-rule:evenodd"
viewBox="0 0 121 121"
 xmlns:xlink="http://www.w3.org/1999/xlink">
 <defs>
  <style type="text/css">
   <![CDATA[
    .fil0 {fill:none}
    .fil1 {fill:#535150}
    .fil2 {fill:white}
    .fil3 {fill:#535150;fill-rule:nonzero}
   ]]>
  </style>
 </defs>
 <g id="Layer_x0020_1">
  <metadata id="CorelCorpID_0Corel-Layer"/>
  <rect class="fil0" width="121" height="121"/>
  <path class="fil1" d="M50 35c-19,0 -34,15 -34,34 0,19 15,34 34,34 1,0 3,0 4,0l3 -6 0 -1c-1,1 -2,1 -3,1l0 0 0 0c-1,0 -3,0 -4,0 -15,0 -27,-11 -27,-25 0,-14 12,-25 27,-25 13,0 24,8 26,20l7 -6c-4,-15 -17,-26 -33,-26zm-8 8l-2 -2c0,0 -12,2 -17,15 -4,12 3,-13 19,-13zm16 0l2 -3c0,0 12,3 16,16 4,12 -3,-13 -18,-13z"/>
  <path class="fil2" d="M50 26l8 0 5 6 -7 10c0,0 -8,-1 -12,0l-7 -10 5 -6 8 0z"/>
  <path class="fil3" d="M57 28l5 4 -9 10c1,0 2,0 3,0l8 -10 -5 -7 -1 0 -17 0 -5 7 8 10c1,0 2,0 3,0l-9 -10 5 -5 14 1z"/>
  <polygon class="fil3" points="63,31 37,31 37,33 63,33 "/>
  <path class="fil3" d="M52 42l7 -10 -5 -6 -3 1 4 5 -5 10c1,0 1,0 2,0z"/>
  <path class="fil3" d="M50 42l-5 -10 4 -6 -3 0 -5 6 6 10c1,0 2,0 3,0z"/>
  <g id="_2205992968240">
   <g>
    <path class="fil1" d="M108 50l-3 -3c-1,-1 -3,-1 -3,0l-3 2 7 7 3 -3c0,-1 0,-2 -1,-3zm-10 1l-36 38 7 7 36 -39 -7 -6z"/>
    <polygon class="fil1" points="59,101 60,95 62,89 66,93 69,96 64,98 "/>
   </g>
   <polygon class="fil2" points="61,95 62,94 63,90 66,93 69,95 64,97 63,97 "/>
  </g>
 </g>
</svg>
