<?xml version="1.0" encoding="UTF-8"?>
<!DOCTYPE svg PUBLIC "-//W3C//DTD SVG 1.1//EN" "http://www.w3.org/Graphics/SVG/1.1/DTD/svg11.dtd">
<!-- Creator: CorelDRAW X8 -->
<svg xmlns="http://www.w3.org/2000/svg" xml:space="preserve" width="500px" height="500px" version="1.1" style="shape-rendering:geometricPrecision; text-rendering:geometricPrecision; image-rendering:optimizeQuality; fill-rule:evenodd; clip-rule:evenodd"
viewBox="0 0 485 485"
 xmlns:xlink="http://www.w3.org/1999/xlink">
 <defs>
  <style type="text/css">
   <![CDATA[
    .fil0 {fill:none}
    .fil1 {fill:#535150}
    .fil2 {fill:red}
    .fil4 {fill:white}
    .fil3 {fill:white;fill-rule:nonzero}
   ]]>
  </style>
 </defs>
 <g id="Layer_x0020_1">
  <metadata id="CorelCorpID_0Corel-Layer"/>
  <rect class="fil0" width="485" height="485"/>
  <g id="_2205992966672">
   <path class="fil1" d="M170 116c-9,19 -31,49 -82,74 0,0 -24,6 -13,48 11,42 35,127 167,173 133,-46 157,-131 168,-173 10,-42 -14,-48 -14,-48 -51,-25 -73,-56 -81,-75 -12,14 -40,24 -73,24 -32,0 -60,-9 -72,-23z"/>
   <ellipse class="fil1" cx="242" cy="101" rx="68" ry="26"/>
  </g>
  <path class="fil2" d="M175 351l29 -97c0,0 0,0 0,-1 0,-1 1,-2 3,-3l41 -22c2,-2 5,-1 7,2l22 41c1,1 1,3 0,4 0,0 0,0 0,1l-29 97c-1,4 -5,6 -9,5l-59 -17c-4,-1 -6,-6 -5,-10zm61 -100c2,-4 6,-6 10,-5 4,1 7,6 5,10 -1,4 -5,6 -9,5 -5,-1 -7,-6 -6,-10z"/>
  <path class="fil3" d="M217 359c2,0 3,-1 4,-2 1,-1 2,-2 2,-3 0,-1 0,-2 0,-3 0,0 -1,-1 -2,-1 -1,0 -1,0 -2,0 -1,1 -2,2 -3,3 -1,3 -3,4 -4,5 -2,1 -3,1 -5,1 -3,-1 -5,-3 -6,-5 -1,-2 -1,-5 0,-7 0,-2 1,-3 1,-4 1,-2 2,-3 3,-4l5 4c-1,1 -2,1 -2,2 -1,1 -1,2 -2,3 0,1 0,1 0,2 1,1 1,1 2,1 0,1 1,0 2,0 0,0 1,-1 2,-2l0 -1c1,-2 3,-4 4,-5 1,0 2,-1 3,-1 1,0 2,0 3,1 3,1 5,2 6,5 2,2 2,5 1,8 -1,2 -2,3 -3,5 -1,1 -2,2 -4,3l-5 -5z"/>
  <path id="1" class="fil3" d="M224 331l3 -7 -10 0c-1,0 -1,0 -2,0 0,0 -1,0 -2,0 0,0 1,0 2,1 0,0 1,0 1,1l8 5zm8 13l-25 -17 3 -9 30 -2 -2 8 -6 0 -3 10 5 3 -2 7z"/>
  <polygon id="2" class="fil3" points="241,314 213,306 216,298 236,304 239,295 245,297 "/>
  <polygon id="3" class="fil3" points="247,293 219,286 224,269 230,271 227,280 232,281 235,273 241,274 238,283 243,284 245,275 251,277 "/>
  <circle class="fil4" cx="204" cy="225" r="17"/>
  <circle class="fil4" cx="168" cy="207" r="13"/>
  <circle class="fil4" cx="152" cy="180" r="12"/>
  <circle class="fil4" cx="284" cy="225" r="17"/>
  <circle class="fil4" cx="319" cy="207" r="13"/>
  <circle class="fil4" cx="336" cy="180" r="12"/>
 </g>
</svg>
