<?xml version="1.0" encoding="UTF-8"?>
<!DOCTYPE svg PUBLIC "-//W3C//DTD SVG 1.1//EN" "http://www.w3.org/Graphics/SVG/1.1/DTD/svg11.dtd">
<!-- Creator: CorelDRAW X8 -->
<svg xmlns="http://www.w3.org/2000/svg" xml:space="preserve" width="500px" height="500px" version="1.1" style="shape-rendering:geometricPrecision; text-rendering:geometricPrecision; image-rendering:optimizeQuality; fill-rule:evenodd; clip-rule:evenodd"
viewBox="0 0 233 233"
 xmlns:xlink="http://www.w3.org/1999/xlink">
 <defs>
  <style type="text/css">
   <![CDATA[
    .fil0 {fill:none}
    .fil1 {fill:#006383}
    .fil2 {fill:#535150}
   ]]>
  </style>
 </defs>
 <g id="Layer_x0020_1">
  <metadata id="CorelCorpID_0Corel-Layer"/>
  <rect class="fil0" width="233" height="233"/>
  <g id="_2205969752720">
   <path class="fil1" d="M113 41c23,0 41,18 41,41 0,8 -3,16 -7,22l0 0 -17 37 -17 37 -17 -37 -17 -37 0 0c-4,-6 -7,-14 -7,-22 0,-23 19,-41 41,-41zm0 9c17,0 31,14 31,32 0,17 -14,31 -31,31 -17,0 -31,-14 -31,-31 0,-18 14,-32 31,-32z"/>
   <path class="fil1" d="M113 65l-11 0 3 10 8 0 8 0 3 -10 -11 0zm14 1l9 9 -11 0 2 -9zm9 12l-20 27 8 -27 12 0zm-23 0l7 0 -7 25 -7 -25 7 0zm-14 -12l-8 9 10 0 -2 -9zm-9 12l20 27 -8 -27 -12 0z"/>
   <ellipse class="fil2" cx="113" cy="189" rx="44" ry="6"/>
  </g>
 </g>
</svg>
